<svg width="159" height="159" viewBox="0 0 159 159" fill="none" xmlns="http://www.w3.org/2000/svg">
<path fill-rule="evenodd" clip-rule="evenodd" d="M1.51172 22.6562H49.2782V30.044L49.2691 30.0501C49.1452 30.1045 49.0183 30.1589 48.8943 30.2163H48.8913C48.5165 30.3886 48.1507 30.567 47.788 30.7544L47.7426 30.7755C47.6308 30.836 47.5189 30.8964 47.4071 30.9569L47.3497 30.9871C47.002 31.1776 46.6574 31.374 46.3219 31.5826L46.2887 31.6008C46.1768 31.6703 46.068 31.7368 45.9622 31.8063L45.9078 31.8426C45.5783 32.0512 45.2549 32.2718 44.9344 32.4985L44.8921 32.5288C44.4599 32.8401 44.0367 33.1636 43.6286 33.5021L43.5591 33.5565C43.2598 33.8044 42.9696 34.0613 42.6824 34.3213L42.6492 34.3545L42.4104 34.5752L42.2804 34.6991L42.0597 34.9138L42.0325 34.941C41.8753 35.0951 41.7242 35.2493 41.5731 35.4065L41.4431 35.5455L41.2436 35.7601L41.1196 35.8962L40.9232 36.1168L40.8778 36.1682C40.7357 36.3315 40.5967 36.4947 40.4576 36.6609L40.3428 36.803L40.1826 36.9995L40.0103 37.2202L39.8773 37.3894L39.8712 37.3985C39.7896 37.5073 39.705 37.6162 39.6264 37.728L39.6203 37.734L39.4662 37.9487L39.3332 38.1361L39.182 38.3567L39.0641 38.526L38.919 38.7467C38.8435 38.8616 38.7679 38.9794 38.6953 39.0943L38.6863 39.1094L38.5412 39.3422L38.4263 39.5326L38.2963 39.7533L38.1573 39.9921L38.0001 40.2762L37.8369 40.5755L37.7432 40.7569L37.6071 41.0229L37.5104 41.2224L37.3744 41.5065L37.2474 41.7786L37.1084 42.0899L37.0328 42.2652L36.9028 42.5675L36.8303 42.7459C36.7728 42.891 36.7154 43.0391 36.661 43.1872L36.6187 43.299C36.5733 43.42 36.528 43.5439 36.4857 43.6648L36.4282 43.8341L36.3134 44.1787L36.268 44.3117C36.2197 44.4719 36.1683 44.6291 36.1229 44.7893L36.0897 44.9072C36.0534 45.0372 36.0171 45.1671 35.9809 45.2971L35.9416 45.4452C35.9083 45.5782 35.8751 45.7113 35.8418 45.8443L35.8176 45.947C35.7783 46.1103 35.7421 46.2735 35.7058 46.4398L35.6756 46.5909C35.6514 46.7118 35.6272 46.8297 35.606 46.9506L35.5728 47.129L35.5093 47.4977L35.4851 47.6459C35.4579 47.8121 35.4337 47.9784 35.4126 48.1446L35.3975 48.2776C35.3793 48.4076 35.3642 48.5406 35.3491 48.6736L35.334 48.8338C35.3189 48.9789 35.3037 49.124 35.2917 49.2721L35.2856 49.3447V49.3689C35.2705 49.5381 35.2614 49.7074 35.2524 49.8767L35.2433 50.0248C35.2372 50.1608 35.2312 50.2999 35.2282 50.4359L35.2252 50.575C35.2191 50.7533 35.2161 50.9317 35.2161 51.113C35.2161 51.2914 35.2191 51.4727 35.2252 51.6511L35.2282 51.7871C35.2312 51.9231 35.2372 52.0622 35.2433 52.1982L35.2524 52.3493C35.2614 52.5186 35.2705 52.6879 35.2856 52.8542V52.8783L35.2917 52.9539C35.3037 53.099 35.3189 53.2441 35.334 53.3892L35.3491 53.5494C35.3642 53.6824 35.3793 53.8154 35.3975 53.9484L35.4126 54.0784C35.4337 54.2447 35.4579 54.4109 35.4851 54.5772L35.5093 54.7253C35.5305 54.8492 35.5486 54.9701 35.5728 55.091L35.606 55.2754L35.6725 55.62L35.7088 55.7863C35.7421 55.9495 35.7783 56.1128 35.8176 56.276L35.8418 56.3818C35.8751 56.5118 35.9083 56.6448 35.9416 56.7748L35.9809 56.9229C36.0171 57.0559 36.0534 57.1828 36.0897 57.3128L36.1229 57.4307C36.1713 57.5939 36.2197 57.7541 36.271 57.9143L36.3103 58.0353L36.4282 58.3889L36.4857 58.5552C36.528 58.6791 36.5733 58.8 36.6187 58.9209L36.661 59.0358C36.7154 59.1809 36.7728 59.329 36.8303 59.4741L36.9089 59.6615L37.0268 59.9457L37.1114 60.1391L37.2414 60.4324L37.3744 60.7165L37.5074 60.9976L37.6132 61.2092L37.7371 61.451L37.8399 61.6475L37.982 61.9135C38.0485 62.0314 38.115 62.1493 38.1815 62.2672L38.2903 62.4576L38.4293 62.6934L38.5382 62.8748L38.6923 63.1196L38.7286 63.1801C38.8404 63.3554 38.9553 63.5307 39.0732 63.7061L39.179 63.8633L39.3422 64.096L39.448 64.2502L39.6264 64.492C39.705 64.6038 39.7896 64.7127 39.8712 64.8245L40.0556 65.0603L40.1614 65.1963L40.3519 65.4321L40.4486 65.547C40.6753 65.822 40.908 66.0941 41.1499 66.3571L41.2285 66.4447L41.4552 66.6896L41.5398 66.7772C41.7877 67.0402 42.0446 67.2941 42.3046 67.545L42.3953 67.6327C42.4799 67.7113 42.5645 67.7899 42.6492 67.8685L42.6824 67.8987C42.9726 68.1647 43.2689 68.4216 43.5711 68.6725L43.6135 68.7088C44.0336 69.0534 44.4629 69.3859 44.9042 69.7003L44.9223 69.7124C46.1587 70.5981 47.4887 71.3659 48.8913 72.0037L48.8943 72.0067C49.0213 72.0641 49.1482 72.1216 49.2782 72.176V72.179V136.344H6.28776C3.66396 136.344 1.51172 133.421 1.51172 129.848V22.6562ZM72.6808 22.6562H115.668V71.1271C102.607 75.1383 93.0848 87.0936 93.0848 101.156C93.0848 115.215 102.607 127.173 115.668 131.187V136.344H67.9048V72.3422C76.3808 68.8448 82.3569 60.6349 82.3569 51.113C82.3569 41.5821 76.3808 33.3751 67.9048 29.8808V29.1493C67.9048 25.5793 70.051 22.6562 72.6808 22.6562ZM67.9048 66.8014V34.1399C73.6512 37.4257 77.5264 43.5197 77.5264 50.4722C77.5264 57.4247 73.6512 63.5156 67.9048 66.8014Z" fill="white"/>
<path fill-rule="evenodd" clip-rule="evenodd" d="M58.9937 32.3789C69.6492 32.3789 78.3458 40.873 78.3458 51.2896C78.3458 61.7032 69.6492 70.1943 58.9937 70.1943C48.3353 70.1943 39.6387 61.7032 39.6387 51.2896C39.6387 40.873 48.3353 32.3789 58.9937 32.3789Z" fill="white"/>
<path d="M125.8 78.0234C139.11 78.0234 149.968 88.6335 149.968 101.638C149.968 114.648 139.11 125.261 125.8 125.261C112.485 125.261 101.627 114.648 101.627 101.638C101.627 88.6335 112.485 78.0234 125.8 78.0234Z" fill="white"/>
</svg>
